<?xml version="1.0" standalone="no"?>
<!DOCTYPE svg PUBLIC "-//W3C//DTD SVG 20010904//EN"
 "http://www.w3.org/TR/2001/REC-SVG-20010904/DTD/svg10.dtd">
<svg version="1.0" xmlns="http://www.w3.org/2000/svg"
 width="300.000000pt" height="300.000000pt" viewBox="0 0 300.000000 300.000000"
 preserveAspectRatio="xMidYMid meet">
<metadata>
Created by potrace 1.10, written by Peter Selinger 2001-2011
</metadata>
<g transform="translate(0.000000,300.000000) scale(0.100000,-0.100000)"
fill="#000000" stroke="none">
<path d="M531 2088 c0 -13 63 -66 320 -274 l138 -110 113 -33 c182 -51 191
-55 218 -78 21 -19 22 -22 7 -23 -10 0 -33 -14 -50 -32 -18 -18 -26 -28 -19
-24 8 5 20 -2 33 -18 24 -31 49 -34 49 -7 0 23 -22 40 -28 23 -5 -17 -22 -15
-22 3 0 8 7 15 16 15 14 0 14 3 4 15 -10 13 -9 15 12 15 13 0 33 -7 44 -15 18
-14 18 -15 1 -46 -23 -41 -17 -46 17 -14 15 14 22 25 15 25 -7 0 -9 3 -6 7 4
3 0 18 -10 32 -11 18 -12 23 -2 15 8 -6 26 -14 42 -18 15 -3 27 -11 27 -16 0
-14 24 -12 38 2 9 9 -4 18 -60 38 -49 18 -185 96 -418 241 -499 311 -481 301
-479 277z m209 -138 c0 -5 -4 -10 -10 -10 -5 0 -10 5 -10 10 0 6 5 10 10 10 6
0 10 -4 10 -10z m70 -42 c14 -13 27 -22 30 -22 3 1 23 -11 45 -26 22 -14 48
-30 58 -33 17 -6 96 -55 157 -97 14 -9 34 -20 45 -24 11 -3 31 -15 45 -26 l25
-19 -45 10 c-88 20 -173 49 -194 68 -11 11 -43 38 -71 60 -27 23 -62 51 -76
63 -14 13 -34 28 -45 34 -10 6 -20 16 -22 22 -6 20 23 13 48 -10z"/>
<path d="M407 1867 c-6 -17 -13 -14 481 -233 297 -132 412 -188 456 -222 44
-34 60 -42 66 -32 6 9 -5 23 -33 44 -23 16 -44 30 -47 30 -3 -1 -48 21 -100
47 -52 26 -116 57 -142 68 -27 12 -48 26 -48 32 0 6 -5 7 -11 3 -6 -3 -41 6
-77 22 -84 35 -133 64 -110 64 9 0 20 -4 23 -10 3 -5 16 -10 29 -10 12 0 26
-3 30 -7 4 -5 44 -16 89 -25 45 -10 91 -20 102 -23 11 -2 34 -7 50 -11 17 -3
38 -8 47 -10 13 -4 16 -1 12 9 -3 9 -19 15 -38 15 -40 0 -187 37 -387 97 -192
58 -272 88 -277 106 -2 8 0 10 5 4 4 -5 13 -11 20 -12 6 -1 24 -5 40 -7 15 -3
54 -15 85 -26 31 -11 101 -31 155 -45 54 -14 107 -28 118 -31 17 -4 18 -4 3 6
-9 5 -126 43 -260 84 -133 41 -250 77 -259 81 -10 4 -19 0 -22 -8z"/>
<path d="M2044 1544 c-133 -67 -168 -68 -368 -9 -87 25 -161 43 -164 40 -4 -3
1 -28 11 -54 22 -62 22 -61 -13 -61 -27 0 -35 -8 -31 -32 0 -5 -3 -8 -9 -8 -5
0 -10 -4 -10 -10 0 -5 6 -10 14 -10 8 0 16 -7 19 -15 5 -10 -4 -16 -31 -20
-20 -4 -48 -11 -62 -17 l-25 -10 36 -31 c19 -18 75 -65 123 -106 130 -109 160
-163 176 -322 13 -130 77 -210 199 -245 110 -32 204 16 232 118 14 54 2 105
-43 179 -40 65 -55 78 -90 79 -17 0 -54 23 -110 67 -163 133 -377 301 -386
304 -5 2 -12 15 -15 29 -5 22 -2 28 23 37 17 6 30 7 30 3 0 -5 126 -51 281
-101 257 -85 282 -95 295 -122 l15 -28 87 5 c100 6 114 10 160 43 42 32 62 72
62 128 0 120 -110 214 -250 215 -58 0 -76 -5 -156 -46z m254 1 c53 -23 111
-83 123 -129 15 -55 -10 -117 -59 -148 -72 -44 -183 -27 -255 41 -84 77 -76
188 18 236 39 19 125 19 173 0z m-650 -27 c6 2 12 -1 12 -8 0 -6 4 -9 9 -5 5
3 13 0 16 -6 4 -5 14 -8 23 -4 8 3 18 2 21 -4 7 -10 63 -20 136 -24 52 -3 140
17 164 37 12 9 13 6 6 -19 -15 -51 -12 -108 7 -137 23 -34 23 -52 1 -43 -10 3
-39 11 -65 17 -26 6 -45 14 -43 18 2 4 -4 6 -13 6 -9 -1 -92 24 -185 54 -129
42 -169 59 -173 74 -4 11 -13 26 -20 33 -7 8 -11 20 -8 27 4 11 14 11 52 -3
26 -10 53 -16 60 -13z m-48 -228 c47 -39 87 -75 88 -80 2 -6 8 -10 13 -10 18
0 89 -63 82 -73 -3 -6 -2 -7 4 -4 6 4 20 -5 33 -18 12 -13 40 -36 61 -51 22
-15 39 -32 39 -38 0 -7 -3 -6 -8 2 -13 19 -100 -11 -142 -49 l-34 -32 -16 54
c-21 69 -55 122 -115 179 -27 25 -64 60 -83 78 -19 17 -37 32 -41 32 -9 1 -64
50 -60 55 5 4 69 23 84 24 6 1 48 -31 95 -69z m368 -316 c111 -46 173 -179
122 -262 -82 -134 -340 -21 -340 148 0 51 22 95 58 114 36 20 113 20 160 0z
m88 -25 c3 -6 -5 -3 -20 6 -14 10 -26 19 -26 22 0 7 39 -17 46 -28z"/>
<path d="M2135 1526 c-17 -7 -36 -20 -43 -28 -8 -10 4 -7 35 8 52 27 75 29
124 13 127 -43 174 -175 79 -224 -80 -41 -199 2 -248 90 -7 12 -12 15 -12 6 0
-8 21 -35 48 -61 78 -79 177 -90 248 -28 28 25 34 37 34 72 0 111 -155 200
-265 152z"/>
<path d="M1933 958 c80 -27 137 -98 137 -172 0 -127 -205 -113 -278 19 -6 11
-12 15 -12 9 0 -5 14 -29 30 -51 73 -99 233 -113 270 -23 35 86 -48 209 -151
225 l-34 5 38 -12z"/>
<path d="M1771 844 c0 -11 3 -14 6 -6 3 7 2 16 -1 19 -3 4 -6 -2 -5 -13z"/>
<path d="M1335 1520 c3 -5 11 -10 16 -10 6 0 7 5 4 10 -3 6 -11 10 -16 10 -6
0 -7 -4 -4 -10z"/>
</g>
</svg>
